<?xml version="1.0" standalone="no"?>
<!DOCTYPE svg PUBLIC "-//W3C//DTD SVG 20010904//EN"
 "http://www.w3.org/TR/2001/REC-SVG-20010904/DTD/svg10.dtd">
<svg version="1.0" xmlns="http://www.w3.org/2000/svg"
 width="400.000000pt" height="500.000000pt" viewBox="0 0 324.000000 261.000000"
 preserveAspectRatio="xMidYMid meet">

<g transform="translate(0.000000,261.000000) scale(0.100000,-0.100000)"
fill="#000000" stroke="none">
<path d="M0 1305 l0 -1305 1620 0 1620 0 0 1305 0 1305 -1620 0 -1620 0 0
-1305z m1813 1250 c175 -31 349 -102 507 -208 96 -65 261 -230 327 -327 83
-123 177 -320 152 -320 -6 0 -13 10 -17 23 -13 51 -116 241 -171 314 -370 499
-1042 660 -1595 382 -270 -136 -501 -391 -607 -668 -22 -59 -44 -68 -24 -10
60 170 176 342 328 485 179 170 416 290 646 329 107 18 350 18 454 0z m-92
-529 l19 -44 -50 -152 c-50 -150 -58 -195 -24 -128 29 57 96 151 143 201 85
91 182 126 230 83 28 -25 41 -99 30 -166 -11 -74 -78 -204 -133 -261 l-44 -47
53 -4 c68 -6 126 -43 151 -96 l19 -39 95 -6 c99 -5 88 -2 470 -135 236 -83
385 -61 472 70 21 30 28 36 28 21 0 -46 -102 -138 -186 -168 -97 -35 -278 -6
-479 75 -208 85 -246 97 -317 105 l-68 7 0 -74 c-1 -44 -8 -94 -19 -127 l-19
-54 63 5 c34 3 74 13 89 23 27 18 44 15 31 -4 -14 -23 -68 -42 -132 -46 -42
-3 -70 -10 -74 -18 -29 -51 -107 -143 -151 -178 -140 -111 -279 -124 -318 -30
-18 45 -5 96 37 142 51 56 102 79 218 99 l100 17 27 46 c29 50 64 155 54 164
-3 3 -17 -2 -32 -11 -14 -10 -28 -16 -30 -13 -10 10 10 36 37 47 21 9 29 19
29 37 0 32 -23 85 -44 102 -30 25 -108 17 -181 -18 -62 -30 -66 -31 -100 -17
-50 21 -47 33 23 80 58 40 155 145 192 209 40 69 64 150 56 192 -7 38 -23 47
-67 38 -78 -15 -245 -244 -303 -416 -33 -99 -66 -411 -66 -634 0 -61 -3 -118
-6 -127 -9 -23 -39 -20 -70 8 l-28 23 3 142 c1 77 1 141 -1 141 -2 0 -32 -11
-68 -24 l-64 -23 -13 -60 c-36 -160 -140 -240 -279 -214 -92 17 -120 93 -64
172 27 38 122 85 190 94 55 8 65 24 54 97 -9 70 -9 70 -61 40 -45 -25 -56 -27
-163 -27 -128 1 -199 20 -414 110 -59 25 -134 52 -166 60 -121 31 -227 12
-304 -56 -28 -25 -46 -35 -46 -26 0 18 66 79 112 104 27 15 56 18 158 18 138
0 102 10 495 -133 89 -32 111 -36 200 -36 104 -1 165 17 165 48 0 8 -42 99
-94 203 -103 208 -116 242 -116 324 0 168 104 289 250 289 138 0 225 -69 249
-196 10 -52 -1 -150 -19 -168 -8 -8 -9 13 -4 70 12 147 -38 230 -160 265 -64
19 -150 -36 -188 -119 -25 -56 -25 -150 0 -222 11 -30 53 -123 93 -207 61
-128 75 -150 87 -140 12 10 14 7 8 -20 -4 -19 -1 -52 8 -84 9 -30 17 -76 19
-104 4 -57 8 -58 89 -23 44 19 47 23 52 62 3 22 12 106 21 186 27 241 77 463
142 630 31 78 39 90 65 90 13 0 25 -14 39 -44z m-1319 -1136 c20 -59 87 -189
134 -262 73 -111 259 -292 373 -362 243 -150 441 -202 726 -193 174 5 274 25
429 85 199 77 421 252 550 432 58 79 141 232 164 298 6 17 16 32 21 32 14 0
-18 -81 -72 -185 -143 -274 -392 -494 -687 -604 -166 -62 -248 -76 -450 -76
-240 0 -365 28 -567 126 -190 92 -382 258 -497 433 -81 123 -168 306 -145 306
5 0 15 -14 21 -30z"/>
<path d="M1789 1042 c-102 -27 -177 -96 -162 -150 7 -28 41 -29 91 -3 34 17
202 156 202 167 0 9 -68 2 -131 -14z"/>
<path d="M1143 1009 c-106 -20 -183 -80 -183 -144 0 -45 22 -65 72 -65 47 0
88 26 116 73 24 38 54 135 44 140 -4 2 -26 0 -49 -4z"/>
</g>
</svg>
